# xmcd
#
# Track frame offsets:
#	150
#	12792
#	27070
#	38678
#	53219
#	66870
#	78069
#	95582
#	110001
#	128932
#	143001
#	155978
#	170715
#	178709
#	189740
#	199649
#	208173
#	221601
#	231142
#	244096
#	259948
#	270952
#	285514
#	300239
#	313304
#	329407
#	343977
#
# Disc length: 4760 seconds
#
# Revision: 0
# Processed by: cddbd v1.5.1PL0 Copyright (c) Steve Scherf et al.
# Submitted via: dBpowerAMP V4.0
#
DISCID=8f12961b
DTITLE=The Major Dundee Band - The Major Dundee Band
DYEAR=2004
DGENRE=Country
TTITLE0=nummer 1
TTITLE1=nummer 2
TTITLE2=nummer3
TTITLE3=nummer4
TTITLE4=nummer5
TTITLE5=nummer6
TTITLE6=nummer7
TTITLE7=nummer8
TTITLE8=nummer9
TTITLE9=nummer10
TTITLE10=nummer11
TTITLE11=nummer12
TTITLE12=nummer13
TTITLE13=nummer14
TTITLE14=nummer15
TTITLE15=nummer16
TTITLE16=nummer17
TTITLE17=nummer18
TTITLE18=nummer19
TTITLE19=nummer20
TTITLE20=nummer21
TTITLE21=nummer22
TTITLE22=nummer23
TTITLE23=nummer24
TTITLE24=nummer25
TTITLE25=nummer26
TTITLE26=nummer27
EXTD=The Major Dundee Band
EXTT0=
EXTT1=
EXTT2=
EXTT3=
EXTT4=
EXTT5=
EXTT6=
EXTT7=
EXTT8=
EXTT9=
EXTT10=
EXTT11=
EXTT12=
EXTT13=
EXTT14=
EXTT15=
EXTT16=
EXTT17=
EXTT18=
EXTT19=
EXTT20=
EXTT21=
EXTT22=
EXTT23=
EXTT24=
EXTT25=
EXTT26=
PLAYORDER=
